<?xml version="1.0" standalone="no"?>
<!DOCTYPE svg PUBLIC "-//W3C//DTD SVG 20010904//EN"
 "http://www.w3.org/TR/2001/REC-SVG-20010904/DTD/svg10.dtd">
<svg version="1.0" xmlns="http://www.w3.org/2000/svg"
 width="700.000000pt" height="700.000000pt" viewBox="0 0 700.000000 700.000000"
 preserveAspectRatio="xMidYMid meet">
<metadata>
Created by potrace 1.11, written by Peter Selinger 2001-2013
</metadata>
<g transform="translate(0.000000,700.000000) scale(0.100000,-0.100000)"
fill="#000000" stroke="none">
<path d="M0 3500 l0 -3500 3500 0 3500 0 0 3500 0 3500 -3500 0 -3500 0 0
-3500z m3766 2758 c-9 -63 -266 -2714 -266 -2738 0 -25 -1 -25 130 -39 526
-59 1040 -295 1351 -618 349 -364 429 -805 219 -1212 -239 -464 -835 -819
-1537 -915 -104 -15 -423 -39 -429 -33 -2 1 58 621 132 1377 74 756 133 1386
132 1400 -2 20 -9 26 -33 28 -452 41 -919 208 -1234 442 -826 612 -697 1563
279 2059 325 165 683 258 1085 281 72 4 140 8 153 8 22 2 23 -1 18 -40z m1984
-5073 l0 -35 -90 0 -90 0 0 -225 0 -225 -40 0 -40 0 0 225 0 225 -85 0 -85 0
0 35 0 35 215 0 215 0 0 -35z m195 13 c38 -127 119 -375 125 -382 5 -4 13 7
18 25 5 19 33 112 62 207 l53 172 59 0 58 0 0 -260 0 -260 -35 0 -35 0 -1 223
-1 222 -43 -135 c-24 -74 -56 -174 -70 -222 l-27 -88 -37 0 -36 0 -70 225 -70
224 -3 -224 -2 -225 -40 0 -40 0 0 260 0 260 64 0 c58 0 65 -2 71 -22z"/>
</g>
</svg>
